<svg width="171" height="46" viewBox="0 0 171 46" fill="none" xmlns="http://www.w3.org/2000/svg">
<circle cx="22.6" cy="22.6" r="21.6" stroke="#C7D2FE" stroke-width="2"/>
<path d="M21.1977 12.0524C21.9245 10.5419 24.0755 10.5419 24.8023 12.0524L33.0201 29.1329C33.6589 30.4607 32.6913 32 31.2178 32H14.7822C13.3087 32 12.3411 30.4607 12.9799 29.1329L21.1977 12.0524Z" stroke="#C7D2FE" stroke-width="2"/>
<path d="M69.0545 18.3622H66.3982C66.3225 17.9266 66.1828 17.5407 65.9792 17.2045C65.7756 16.8636 65.5223 16.5748 65.2192 16.3381C64.9162 16.1013 64.5706 15.9238 64.1823 15.8054C63.7988 15.6823 63.3845 15.6207 62.9394 15.6207C62.1487 15.6207 61.4479 15.8196 60.8371 16.2173C60.2264 16.6103 59.7481 17.188 59.4025 17.9503C59.0568 18.7079 58.884 19.6335 58.884 20.7273C58.884 21.84 59.0568 22.7775 59.4025 23.5398C59.7529 24.2973 60.2311 24.8703 60.8371 25.2585C61.4479 25.642 62.1463 25.8338 62.9323 25.8338C63.3679 25.8338 63.7751 25.777 64.1539 25.6634C64.5374 25.545 64.8807 25.3722 65.1837 25.1449C65.4915 24.9176 65.7496 24.6383 65.9579 24.3068C66.171 23.9754 66.3177 23.5966 66.3982 23.1705L69.0545 23.1847C68.955 23.8759 68.7396 24.5246 68.4082 25.1307C68.0815 25.7367 67.653 26.2718 67.1227 26.7358C66.5924 27.1951 65.9721 27.5549 65.2619 27.8153C64.5516 28.071 63.7633 28.1989 62.8968 28.1989C61.6184 28.1989 60.4773 27.9029 59.4735 27.3111C58.4697 26.7192 57.679 25.8646 57.1014 24.7472C56.5237 23.6297 56.2349 22.2898 56.2349 20.7273C56.2349 19.16 56.5261 17.8201 57.1085 16.7074C57.6908 15.59 58.4839 14.7353 59.4877 14.1435C60.4915 13.5516 61.6279 13.2557 62.8968 13.2557C63.7065 13.2557 64.4593 13.3693 65.1553 13.5966C65.8514 13.8239 66.4716 14.1577 67.0161 14.598C67.5606 15.0336 68.0081 15.5687 68.3585 16.2031C68.7136 16.8329 68.9456 17.5526 69.0545 18.3622ZM84.5646 20.7273C84.5646 22.2945 84.2711 23.6368 83.684 24.7543C83.1016 25.867 82.3061 26.7192 81.2976 27.3111C80.2938 27.9029 79.1551 28.1989 77.8814 28.1989C76.6077 28.1989 75.4666 27.9029 74.4581 27.3111C73.4543 26.7145 72.6589 25.8598 72.0717 24.7472C71.4893 23.6297 71.1982 22.2898 71.1982 20.7273C71.1982 19.16 71.4893 17.8201 72.0717 16.7074C72.6589 15.59 73.4543 14.7353 74.4581 14.1435C75.4666 13.5516 76.6077 13.2557 77.8814 13.2557C79.1551 13.2557 80.2938 13.5516 81.2976 14.1435C82.3061 14.7353 83.1016 15.59 83.684 16.7074C84.2711 17.8201 84.5646 19.16 84.5646 20.7273ZM81.9155 20.7273C81.9155 19.6241 81.7427 18.6937 81.397 17.9361C81.0561 17.1738 80.5826 16.5985 79.9766 16.2102C79.3705 15.8172 78.6721 15.6207 77.8814 15.6207C77.0907 15.6207 76.3923 15.8172 75.7862 16.2102C75.1802 16.5985 74.7043 17.1738 74.3587 17.9361C74.0178 18.6937 73.8473 19.6241 73.8473 20.7273C73.8473 21.8305 74.0178 22.7633 74.3587 23.5256C74.7043 24.2831 75.1802 24.8584 75.7862 25.2514C76.3923 25.6397 77.0907 25.8338 77.8814 25.8338C78.6721 25.8338 79.3705 25.6397 79.9766 25.2514C80.5826 24.8584 81.0561 24.2831 81.397 23.5256C81.7427 22.7633 81.9155 21.8305 81.9155 20.7273ZM87.1558 28V13.4545H92.6103C93.7277 13.4545 94.6652 13.6629 95.4228 14.0795C96.1851 14.4962 96.7604 15.0691 97.1487 15.7983C97.5416 16.5227 97.7381 17.3466 97.7381 18.2699C97.7381 19.2027 97.5416 20.0312 97.1487 20.7557C96.7557 21.4801 96.1756 22.0507 95.4086 22.4673C94.6416 22.8793 93.6969 23.0852 92.5748 23.0852H88.9597V20.919H92.2197C92.8731 20.919 93.4081 20.8054 93.8248 20.5781C94.2415 20.3509 94.5492 20.0384 94.7481 19.6406C94.9517 19.2429 95.0535 18.786 95.0535 18.2699C95.0535 17.7538 94.9517 17.2992 94.7481 16.9062C94.5492 16.5133 94.2391 16.2079 93.8177 15.9901C93.401 15.7675 92.8636 15.6562 92.2055 15.6562H89.7907V28H87.1558ZM99.1325 13.4545H102.108L105.667 19.8892H105.809L109.367 13.4545H112.343L107.052 22.5739V28H104.424V22.5739L99.1325 13.4545ZM114.309 28V13.4545H119.877C120.928 13.4545 121.802 13.6203 122.498 13.9517C123.199 14.2784 123.722 14.7259 124.067 15.294C124.418 15.8622 124.593 16.5062 124.593 17.2259C124.593 17.8177 124.479 18.3243 124.252 18.7457C124.025 19.1624 123.719 19.5009 123.336 19.7614C122.952 20.0218 122.524 20.2088 122.05 20.3224V20.4645C122.566 20.4929 123.061 20.6515 123.535 20.9403C124.013 21.2244 124.404 21.6269 124.707 22.1477C125.01 22.6686 125.161 23.2983 125.161 24.0369C125.161 24.7898 124.979 25.4669 124.614 26.0682C124.25 26.6648 123.7 27.1359 122.967 27.4815C122.233 27.8272 121.309 28 120.197 28H114.309ZM116.944 25.7983H119.778C120.734 25.7983 121.423 25.616 121.844 25.2514C122.271 24.8821 122.484 24.4086 122.484 23.831C122.484 23.4001 122.377 23.0118 122.164 22.6662C121.951 22.3158 121.648 22.0412 121.255 21.8423C120.862 21.6387 120.393 21.5369 119.849 21.5369H116.944V25.7983ZM116.944 19.6406H119.55C120.005 19.6406 120.414 19.5578 120.779 19.392C121.144 19.2216 121.43 18.9825 121.638 18.6747C121.851 18.3622 121.958 17.9929 121.958 17.5668C121.958 17.0033 121.759 16.5393 121.361 16.1747C120.968 15.8101 120.384 15.6278 119.607 15.6278H116.944V19.6406ZM140.551 20.7273C140.551 22.2945 140.257 23.6368 139.67 24.7543C139.088 25.867 138.292 26.7192 137.284 27.3111C136.28 27.9029 135.141 28.1989 133.867 28.1989C132.594 28.1989 131.453 27.9029 130.444 27.3111C129.44 26.7145 128.645 25.8598 128.058 24.7472C127.475 23.6297 127.184 22.2898 127.184 20.7273C127.184 19.16 127.475 17.8201 128.058 16.7074C128.645 15.59 129.44 14.7353 130.444 14.1435C131.453 13.5516 132.594 13.2557 133.867 13.2557C135.141 13.2557 136.28 13.5516 137.284 14.1435C138.292 14.7353 139.088 15.59 139.67 16.7074C140.257 17.8201 140.551 19.16 140.551 20.7273ZM137.901 20.7273C137.901 19.6241 137.729 18.6937 137.383 17.9361C137.042 17.1738 136.569 16.5985 135.963 16.2102C135.356 15.8172 134.658 15.6207 133.867 15.6207C133.077 15.6207 132.378 15.8172 131.772 16.2102C131.166 16.5985 130.69 17.1738 130.345 17.9361C130.004 18.6937 129.833 19.6241 129.833 20.7273C129.833 21.8305 130.004 22.7633 130.345 23.5256C130.69 24.2831 131.166 24.8584 131.772 25.2514C132.378 25.6397 133.077 25.8338 133.867 25.8338C134.658 25.8338 135.356 25.6397 135.963 25.2514C136.569 24.8584 137.042 24.2831 137.383 23.5256C137.729 22.7633 137.901 21.8305 137.901 20.7273ZM156.139 20.7273C156.139 22.2945 155.845 23.6368 155.258 24.7543C154.676 25.867 153.88 26.7192 152.872 27.3111C151.868 27.9029 150.729 28.1989 149.456 28.1989C148.182 28.1989 147.041 27.9029 146.032 27.3111C145.029 26.7145 144.233 25.8598 143.646 24.7472C143.064 23.6297 142.772 22.2898 142.772 20.7273C142.772 19.16 143.064 17.8201 143.646 16.7074C144.233 15.59 145.029 14.7353 146.032 14.1435C147.041 13.5516 148.182 13.2557 149.456 13.2557C150.729 13.2557 151.868 13.5516 152.872 14.1435C153.88 14.7353 154.676 15.59 155.258 16.7074C155.845 17.8201 156.139 19.16 156.139 20.7273ZM153.49 20.7273C153.49 19.6241 153.317 18.6937 152.971 17.9361C152.63 17.1738 152.157 16.5985 151.551 16.2102C150.945 15.8172 150.246 15.6207 149.456 15.6207C148.665 15.6207 147.967 15.8172 147.36 16.2102C146.754 16.5985 146.279 17.1738 145.933 17.9361C145.592 18.6937 145.422 19.6241 145.422 20.7273C145.422 21.8305 145.592 22.7633 145.933 23.5256C146.279 24.2831 146.754 24.8584 147.36 25.2514C147.967 25.6397 148.665 25.8338 149.456 25.8338C150.246 25.8338 150.945 25.6397 151.551 25.2514C152.157 24.8584 152.63 24.2831 152.971 23.5256C153.317 22.7633 153.49 21.8305 153.49 20.7273ZM158.73 28V13.4545H161.365V20.1378H161.542L167.217 13.4545H170.435L164.81 19.9815L170.484 28H167.317L162.977 21.7642L161.365 23.6676V28H158.73Z" fill="#C7D2FE"/>
</svg>
